<svg width="375" height="224" viewBox="0 0 375 224" fill="none" xmlns="http://www.w3.org/2000/svg">
<g opacity="0.3">
<path d="M404.344 10.4541C395.294 15.5185 387.15 22.1398 377.708 26.5135C367.244 31.361 356.046 34.6382 345.08 38.1254C334.368 41.5322 323.852 45.2051 313.71 50.0906C304.218 54.6632 295.139 59.9835 286.221 65.5788C277.386 71.1216 267.825 77.1963 261.966 86.0609C261.842 85.5591 261.718 85.0572 261.594 84.5554C265.298 87.0289 271.147 86.0464 275.288 85.5926C279.417 85.1411 283.53 84.3665 287.686 84.2134C300.898 83.726 313.895 82.6173 326.712 79.1658C350.482 72.7624 370.764 59.0044 387.439 41.1164C396.478 31.4214 404.422 20.7762 411.686 9.70301C412.409 8.59871 413.937 10.1032 413.321 11.0409C400.125 31.1598 384.518 50.1845 364.622 64.014C342.7 79.2507 316.698 85.6373 290.254 86.3024C284.883 86.4376 279.639 87.3754 274.298 87.8784C269.901 88.2908 264.57 88.8094 260.702 86.2275C260.29 85.9525 260.044 85.1545 260.33 84.723C265.24 77.2947 272.636 71.8581 279.959 66.9905C288.575 61.2644 297.497 55.9128 306.673 51.1357C316.926 45.7986 327.531 41.4965 338.515 37.9242C349.7 34.2872 361.009 30.9799 371.925 26.5694C383.307 21.9722 392.752 14.4041 403.382 8.45564C404.398 7.88784 405.369 9.88073 404.344 10.4541Z" fill="#D3D6D6"/>
<path d="M261.173 84.9998C282.963 75.7116 306.648 72.0589 328.461 62.85C339.63 58.1355 349.973 51.5655 360.256 45.1968C365.658 41.8504 370.991 38.3854 376.138 34.6567C380.934 31.1829 385.412 27.3144 390.157 23.778C400.14 16.3396 411.124 9.82441 419.424 0.397588C420.233 -0.521174 421.522 1.27276 420.776 2.11998C413.377 10.5241 403.797 16.6179 394.781 23.1096C385.224 29.9903 376.304 37.5561 366.375 43.9438C356.032 50.5976 345.406 57.4537 334.265 62.6924C323.72 67.6506 312.551 71.0686 301.373 74.2675C288.145 78.0532 274.82 81.5908 262.135 86.9983C261.057 87.4577 260.099 85.4581 261.173 84.9998Z" fill="#D3D6D6"/>
<path d="M375.511 158.977C349.389 147.831 320.407 151.979 292.844 149.697C279.066 148.557 266.162 145.131 253.035 141.006C242.902 137.82 232.388 135.072 221.832 133.764C209.471 132.232 196.084 135.551 184.632 140.068C184.567 139.574 184.504 139.079 184.439 138.585C191.071 141.952 198.238 144.157 205.132 146.911C212.614 149.898 219.548 154.77 227.626 156.025C233.388 156.92 239.509 156.555 245.309 156.3C251.017 156.049 256.209 155.123 261.754 153.84C270.36 151.847 279.089 150.234 287.554 147.678C288.392 147.424 289.099 148.927 288.276 149.176C280.93 151.395 273.387 152.91 265.905 154.582C259.831 155.94 254.069 157.426 247.838 157.79C241.969 158.132 235.995 158.306 230.123 157.881C222.029 157.297 215.43 152.964 208.195 149.791C200.265 146.314 191.836 143.977 184.102 140.053C183.648 139.821 183.258 138.826 183.91 138.569C194.128 134.54 206.048 131.353 217.104 131.772C227.668 132.173 238.372 135.149 248.477 138.057C253.788 139.586 258.976 141.499 264.294 142.999C271.686 145.084 279.239 146.597 286.865 147.513C301.334 149.252 315.936 148.822 330.473 149.289C345.942 149.786 361.482 151.381 375.848 157.509C376.638 157.847 376.476 159.388 375.511 158.977Z" fill="#D3D6D6"/>
<path d="M184.439 138.585C190.534 141.196 198.361 140.531 204.831 140.52C207.917 140.514 211.01 140.438 214.095 140.561C218.624 140.741 222.989 141.82 227.367 142.916C240.441 146.193 254.136 146.836 267.556 147.462C274.245 147.775 281.035 148.125 287.726 147.627C288.569 147.565 289.025 149.157 288.104 149.226C275.229 150.183 261.928 148.939 249.103 147.818C243.019 147.286 236.88 146.741 230.918 145.366C225.708 144.163 220.56 142.529 215.192 142.196C212.111 142.004 209.006 142.107 205.923 142.116C198.976 142.136 190.639 142.852 184.103 140.053C183.312 139.714 183.476 138.173 184.439 138.585Z" fill="#D3D6D6"/>
<path d="M364.298 154.643C356.588 159.633 348.142 163.298 340.271 168.007C334.38 171.532 328.817 175.625 323.583 180.063C313.005 189.033 301.125 200.967 299.175 215.369C298.886 214.993 298.596 214.618 298.308 214.243C302.164 213.295 305.113 210.698 308.136 208.272C310.979 205.992 314.053 204.141 317.252 202.401C324.451 198.483 331.197 194.375 337.24 188.777C342.81 183.618 348.031 177.764 352.27 171.458C356.21 165.595 359.482 159.316 363.323 153.392C363.862 152.561 365.009 153.69 364.551 154.395C360.563 160.545 357.199 167.086 353.044 173.128C348.642 179.529 343.312 185.49 337.562 190.704C331.476 196.223 324.707 200.217 317.536 204.138C313.821 206.17 310.494 208.51 307.194 211.147C304.6 213.219 301.951 215.039 298.686 215.842C298.086 215.989 297.758 215.163 297.818 214.716C299.764 200.341 311.437 188.327 321.947 179.302C327.139 174.844 332.67 170.732 338.501 167.145C346.664 162.124 355.523 158.355 363.577 153.144C364.301 152.675 365.037 154.166 364.298 154.643Z" fill="#D3D6D6"/>
<path d="M297.99 214.396C306.574 204.048 315.303 193.083 326.392 185.328C338.984 176.521 349.328 165.147 361.667 156.049C362.415 155.498 363.357 156.843 362.681 157.341C350.765 166.127 340.861 177.278 328.68 185.738C317.057 193.812 307.988 204.859 299.003 215.688C298.421 216.391 297.451 215.047 297.99 214.396Z" fill="#D3D6D6"/>
<path d="M302.808 149.564C296.207 136.907 288.154 125.776 277.585 116.157C267.73 107.187 256.52 97.8675 243.17 95.0061L243.759 93.9264C246.404 100.334 251.837 104.905 256.433 109.89C261.535 115.426 265.871 121.407 271.485 126.502C276.159 130.744 281.08 134.764 286.155 138.515C291.517 142.478 297.219 146.367 303.575 148.543C304.391 148.822 304.228 150.349 303.238 150.01C297.042 147.889 291.451 144.123 286.194 140.289C280.603 136.212 275.185 131.797 270.1 127.101C264.578 122.002 260.271 116.008 255.184 110.535C250.551 105.55 245.215 100.931 242.562 94.502C242.382 94.0673 242.501 93.2815 243.151 93.4212C256.756 96.3362 268.21 105.762 278.254 114.903C289.03 124.711 297.275 136.084 304.005 148.988C304.489 149.915 303.29 150.487 302.808 149.564Z" fill="#D3D6D6"/>
<path d="M245.645 95.1413C255.851 102.666 264.487 111.944 273.681 120.615C283.649 130.016 293.897 139.115 303.741 148.649C304.379 149.268 303.849 150.656 303.071 149.903C293.228 140.369 282.979 131.27 273.011 121.869C263.818 113.198 255.182 103.92 244.976 96.3954C244.244 95.8555 244.772 94.4975 245.645 95.1413Z" fill="#D3D6D6"/>
<path d="M349.138 150.894C344.282 147.187 340.276 142.614 336.385 137.936C332.449 133.204 328.182 128.719 324.407 123.861C320.811 119.234 317.926 114.265 315.459 108.96C313.121 103.931 310.279 98.8529 310.359 93.1492C310.368 92.5322 310.919 92.3311 311.393 92.6518C313.711 94.2245 315.463 96.2956 317.258 98.4204C319.743 101.366 322.444 103.415 325.679 105.471C330.755 108.699 335.314 112.837 339.112 117.502C346.545 126.633 349.513 138.838 350.172 150.396C350.234 151.478 348.825 151.034 348.774 150.137C348.097 138.252 344.87 126.059 336.886 116.961C332.891 112.41 328.293 108.889 323.242 105.614C320.954 104.13 318.958 102.459 317.168 100.401C315.141 98.0716 313.31 95.6607 310.723 93.9059C311.068 93.7405 311.412 93.574 311.756 93.4085C311.675 99.2084 314.837 104.483 317.211 109.594C319.68 114.909 322.836 119.821 326.529 124.367C330.021 128.664 333.804 132.724 337.347 136.982C341.151 141.554 345.06 146.017 349.808 149.64C350.53 150.191 350.001 151.552 349.138 150.894Z" fill="#D3D6D6"/>
<path d="M311.997 93.7338C311.585 95.6719 313.659 98.4305 314.626 99.9293C315.905 101.911 317.311 103.81 318.752 105.675C322.649 110.719 326.582 115.753 330.61 120.692C338.018 129.776 346.199 138.949 350.146 150.189C350.506 151.214 349.117 151.246 348.8 150.345C344.273 137.451 333.981 127.256 325.716 116.706C322.249 112.281 318.62 107.942 315.355 103.362C313.514 100.779 309.904 96.5438 310.64 93.0811C310.858 92.0584 312.175 92.8978 311.997 93.7338Z" fill="#D3D6D6"/>
<path d="M327.933 150.646C322.79 157.066 316.461 162.286 310.027 167.353C303.561 172.443 297.414 177.979 290.803 182.873C284.396 187.615 277.555 191.437 270.243 194.589C263.314 197.578 256.276 201.368 248.511 200.987C247.998 200.961 247.595 200.108 247.887 199.693C250.154 196.47 253.172 194.116 256.219 191.676C259.64 188.938 262.34 185.958 264.789 182.314C269.607 175.147 275.23 168.726 282.042 163.368C294.698 153.412 311.395 149.651 327.238 149.201C328.08 149.176 328.533 150.773 327.615 150.799C311.646 151.253 294.911 155.055 282.284 165.276C275.613 170.676 270.313 177.036 265.497 184.089C263.333 187.259 260.904 189.99 257.922 192.416C254.772 194.979 251.479 197.334 249.114 200.696C248.906 200.265 248.7 199.833 248.492 199.402C256.63 199.801 264.426 195.346 271.67 192.171C278.971 188.974 285.762 184.761 292.044 179.866C298.042 175.193 303.786 170.188 309.757 165.473C315.938 160.591 321.976 155.525 326.92 149.354C327.489 148.644 328.461 149.988 327.933 150.646Z" fill="#D3D6D6"/>
<path d="M248.676 199.051C251.126 199.702 254.259 197.637 256.282 196.489C259.267 194.796 262.111 192.848 264.892 190.84C271.637 185.973 278.303 180.961 284.921 175.923C298.028 165.949 311.08 154.332 327.066 149.25C327.901 148.985 328.609 150.487 327.787 150.749C310.545 156.231 296.724 169.196 282.502 179.798C276.263 184.449 270.096 189.244 263.708 193.693C260.867 195.671 257.952 197.613 254.839 199.143C253.064 200.016 250.734 201.177 248.695 200.636C247.892 200.424 247.73 198.8 248.676 199.051Z" fill="#D3D6D6"/>
<path d="M310.717 266.563C310.391 266.835 310.076 267.107 309.767 267.373C308.672 268.317 307.637 269.209 306.306 269.974C304.469 271.03 302.326 272.243 300.146 273.285C296.271 275.133 292.135 276.368 288.601 277.333C284.822 278.363 280.702 279.336 276.208 279.487C274.256 279.552 272.277 279.528 270.362 279.505C267.853 279.474 265.256 279.442 262.712 279.613C262.67 279.616 262.627 279.616 262.585 279.614C259.509 286.02 257.403 292.14 256.151 298.312C254.245 307.701 254.069 317.228 255.611 326.672C254.98 326.748 254.348 326.815 253.717 326.872C253.256 323.942 252.952 320.941 252.817 317.911C250.917 316.775 249.209 315.334 247.556 313.94C245.377 312.103 243.123 310.202 240.459 309.049C239.367 308.576 238.275 308.111 237.183 307.645C232.674 305.724 228.013 303.737 223.602 301.345C218.214 298.423 213.69 295.442 209.773 292.232C205.091 288.395 201.271 283.791 198.059 279.776C195.93 277.116 193.671 274.766 191.156 272.589C188.958 270.688 186.885 268.758 185.702 266.056C185.582 265.782 185.607 265.473 185.771 265.208C185.946 264.925 186.268 264.737 186.582 264.726C197.657 264.217 208.248 271.097 215.253 276.317C219.56 279.526 223.705 283.142 227.578 287.064C231.491 291.027 234.948 295.467 238.292 299.76L239.758 301.641C242.028 304.561 244.374 307.579 247.173 309.988C247.814 310.54 248.482 311.072 249.149 311.604C250.194 312.438 251.268 313.294 252.253 314.241C250.764 300.978 244.694 288.83 238.819 277.069C237.763 274.956 236.709 272.848 235.684 270.738C233.131 265.485 231.101 260.81 229.482 256.447C226.005 252.883 222.644 249.105 219.394 245.451L219.048 245.061C218.312 244.235 217.554 243.415 216.793 242.59C214.133 239.708 211.383 236.729 209.413 233.306C206.672 228.547 206.426 223.033 206.411 218.239C206.397 214.075 206.402 209.909 206.406 205.743L206.412 199.692C206.413 199.343 206.639 199.022 207.003 198.856C207.125 198.801 207.249 198.768 207.371 198.757C207.612 198.736 207.844 198.803 208.018 198.954C214.488 204.536 220.058 209.771 222.688 217.333C224.369 222.162 225.037 227.331 225.685 232.33C226.11 235.622 226.551 239.025 227.276 242.279C229.051 250.242 231.99 258.487 236.259 267.486C236.459 267.906 236.661 268.327 236.863 268.748C236.865 265.53 237.319 262.358 237.827 259.37C238.61 254.764 239.619 250.296 240.83 246.094C241.679 243.143 242.886 240.325 244.053 237.601C244.821 235.81 245.615 233.958 246.298 232.089C246.539 231.428 246.771 230.762 247.005 230.096C248.227 226.602 249.491 222.99 252.018 220.078C252.245 219.817 252.629 219.699 252.98 219.779C253.288 219.851 253.516 220.071 253.593 220.366C255.926 229.354 253.718 238.823 251.465 246.993C248.964 256.063 244.842 264.513 238.861 272.826C239.428 273.969 239.998 275.109 240.568 276.25C242.737 280.584 244.978 285.068 246.976 289.581C249.883 296.139 251.844 301.875 253.042 307.366C253.953 297.005 256.896 286.73 261.623 277.459L261.778 277.168C264.396 272.074 267.492 267.089 270.487 262.271C271.805 260.15 273.165 257.961 274.47 255.788C269.866 244.555 268.557 234.223 270.581 225.073C271.661 220.189 273.824 215.7 277.007 211.732C277.844 210.688 278.74 209.659 279.608 208.663C282.346 205.516 285.177 202.263 286.469 198.175C286.614 197.718 287.21 197.435 287.651 197.49C288.017 197.535 288.268 197.804 288.294 198.227C288.869 207.696 289.464 217.488 287.982 227.035C286.817 234.541 284.02 242.267 279.431 250.654C277.145 254.833 274.595 258.942 272.13 262.916C270.179 266.061 268.161 269.312 266.289 272.574C265.985 273.103 265.685 273.636 265.39 274.17C270.213 271.161 276.448 269.959 281.551 268.977C290.631 267.227 300.315 265.484 310.137 265.069C310.522 265.054 310.856 265.264 310.989 265.605C311.118 265.94 311.012 266.317 310.717 266.563Z" fill="#D3D6D6"/>
<path d="M32.0692 198.218C38.3139 197.92 44.2736 196.544 50.3506 195.2C57.2123 193.683 64.7379 192.381 71.2977 195.665C71.3983 195.715 71.4989 195.726 71.5984 195.734C79.5633 203.779 87.4532 211.898 95.161 220.202C91.8917 220.677 88.6626 221.25 85.4805 222.158C83.3858 218.249 78.5886 218.577 75.1002 220.394C72.3596 221.824 68.4476 224.819 68.6599 228.336C68.67 228.489 68.7024 228.626 68.727 228.769C68.661 228.777 68.6052 228.768 68.5303 228.793C58.5044 232.033 47.9207 233.256 37.4544 234.058C27.9572 234.787 17.8832 235.949 9.02751 231.645C8.98728 231.626 8.94704 231.632 8.90568 231.619C7.08604 227.709 5.82861 223.581 5.56706 219.595C18.005 221.015 29.6963 226.549 42.3031 226.961C47.971 227.145 53.0667 225.928 58.2015 223.603C61.7346 222.004 66.5564 219.943 67.9625 215.967C69.544 211.498 65.3839 208.292 61.663 206.991C56.8948 205.322 51.522 205.143 46.5247 205.55C33.8654 206.581 21.0597 211.521 8.94033 205.257C1.42592 201.373 -0.321071 194.13 0.0455397 186.466C7.15087 196.496 20.3958 198.774 32.0692 198.218Z" fill="#D3D6D6"/>
<path d="M22.9589 142.846C30.8477 153.621 39.5491 163.557 48.9625 173.02C55.3425 179.434 61.7503 185.818 68.1269 192.232C57.8897 189.649 46.669 194.75 36.4832 195.844C23.9402 197.192 7.99041 195.763 0.769963 183.848C0.638073 183.631 0.467061 183.531 0.287109 183.483C0.781139 179 1.82509 174.504 2.71255 170.565C6.61785 172.351 9.77429 175.729 12.8234 178.632C16.1218 181.774 19.5264 185.078 23.6329 187.148C29.8161 190.265 40.2164 189.348 43.1661 181.983C45.7133 175.625 39.2932 169.298 34.7441 165.858C26.8128 159.859 15.8848 159.507 9.48033 151.243C2.01733 141.611 4.92228 129.697 6.15065 118.455C7.83057 122.269 10.4907 125.682 12.9777 128.964C16.4202 133.509 19.5912 138.246 22.9589 142.846Z" fill="#D3D6D6"/>
<path d="M36.3599 236.17C47.2989 235.363 58.3487 234.104 68.8262 230.716C69.0665 230.639 69.2408 230.47 69.3638 230.271C71.0616 232.473 75.3905 232.505 77.721 231.696C80.8237 230.619 85.6478 227.79 85.8367 224.066C89.1597 223.126 92.5251 222.581 95.9442 222.102C96.199 222.066 96.4103 221.917 96.5735 221.719C96.8976 222.071 97.2273 222.419 97.5515 222.771C104.647 230.493 110.97 238.877 117.974 246.678C119.714 248.615 121.502 250.484 123.329 252.301C118.85 252.116 114.687 254.382 110.993 257.313C108.668 259.158 106.54 261.229 104.283 263.155C100.721 266.192 96.7467 268.701 92.5061 270.68C84.9783 274.193 76.6781 276.373 68.4707 277.567C61.6795 278.555 54.8603 278.391 48.1954 276.683C44.4354 275.721 41.0051 274.303 37.6441 272.369C35.9374 271.385 34.244 270.398 32.4859 269.551C37.9783 269.27 43.558 269.955 49.0292 269.27C56.2038 268.141 62.4898 264.701 68.7546 261.212C72.9718 258.862 78.2049 257.366 81.918 254.23C84.5815 251.981 85.5204 248.587 83.5208 245.529C81.045 241.741 75.7214 241.593 71.6875 241.969C61.684 242.902 52.303 247.34 42.5677 249.547C37.6732 250.657 32.5093 251.388 27.521 250.492C23.0143 249.681 19.6791 247.108 16.7339 243.696C14.4738 241.079 12.2574 237.936 10.3931 234.543C18.6519 237.653 27.6551 236.813 36.3599 236.17Z" fill="#D3D6D6"/>
<path d="M39.4667 125.924C38.8173 130.034 38.4496 134.107 39.5908 138.156C41.9134 146.391 46.8179 156.495 44.3187 165.208C36.5562 157.027 29.4687 148.34 22.872 139.187C19.9592 135.146 17.1604 131.038 14.1571 127.064C11.4232 123.445 8.53726 119.705 7.08423 115.357C11.7451 118.654 17.6634 118.925 23.3772 118.538C29.7459 118.106 36.0912 117.687 42.4633 117.398C40.6046 119.787 39.9328 122.97 39.4667 125.924Z" fill="#D3D6D6"/>
<path d="M128.179 254.083C128.207 254.01 128.229 253.932 128.242 253.85C128.94 249.004 132.434 246.687 136.198 244.147C140.282 241.391 144.573 238.998 148.855 236.57C156.713 232.115 164.304 227.419 169.737 220.041C174.336 213.796 177.783 206.313 179.187 198.664C180.647 190.71 179.708 182.557 181.015 174.591C186.622 184.778 188.688 196.285 187.381 207.896C186.125 219.061 182.515 231.693 175.157 240.389C170.865 245.462 165.34 249.323 159.386 252.206C156.44 253.632 153.394 254.838 150.298 255.892C148.797 256.403 147.281 256.875 145.759 257.319C144.626 257.649 143.121 257.812 142.142 258.482C140.888 259.337 140.274 260.957 140.765 262.406C141.463 264.468 144.52 265.584 146.239 266.619C152.032 270.102 157.995 273.295 164.036 276.327C170.253 279.448 176.556 282.395 182.874 285.308C188.032 287.686 193.186 290.543 198.629 292.244C198.13 292.867 197.631 293.49 197.126 294.109C178.169 286.804 159.437 278.217 142.885 266.319C137.679 262.577 132.799 258.47 128.179 254.083Z" fill="#D3D6D6"/>
<path d="M151.321 214.965C156.486 212.208 161.009 208.137 164.811 203.72C171.066 196.457 175.01 187.583 178.701 178.749C178.14 185.448 178.617 192.232 177.362 198.867C175.699 207.656 171.245 216.41 165.111 222.914C158.399 230.03 149.078 234.139 140.797 239.076C135.103 242.47 128.423 245.939 126.696 252.654C123.176 249.221 119.805 245.631 116.577 241.893C113.701 238.563 111.105 234.622 108.277 231.262C112.698 227.391 115.103 220.053 117.184 216.045C117.188 216.046 117.19 216.046 117.193 216.047C121.087 217.409 124.632 211.954 125.963 208.799C127.418 206.704 129.067 202.659 127.976 199.847C134.668 190.788 140.305 181.169 143.021 170.148C145.487 160.145 145.716 149.895 145.965 139.644C147.655 141.754 149.036 144.145 150.045 146.771C152.325 152.706 152.493 159.242 151.779 165.493C150.483 176.827 146.712 188.638 142.092 199.051C140.498 202.648 132.405 214.313 138.293 217.362C142.014 219.288 148.041 216.717 151.321 214.965Z" fill="#D3D6D6"/>
<path d="M141.452 169.1C138.903 180.018 133.421 189.7 126.826 198.658C126.484 198.362 126.083 198.104 125.585 197.915C120.271 195.895 117.29 201.803 115.752 205.748C114.86 208.032 112.865 214.121 115.224 216.398C112.901 221.244 111.269 226.867 107.015 230.417C106.984 230.443 106.967 230.479 106.939 230.509C103.037 225.886 99.0962 221.297 94.9294 216.886C92.7252 214.552 90.5177 212.222 88.3058 209.896C88.3628 209.689 88.3807 209.476 88.3035 209.275C87.0662 206.057 88.4298 201.964 89.5163 198.876C90.7938 195.242 92.7129 191.865 94.4342 188.429C98.3507 180.618 101.809 172.71 103.526 164.098C105.207 155.658 105.681 146.953 105.12 138.373C104.849 134.23 104.733 130.136 103.965 126.048C103.336 122.698 102.581 119.339 102.855 115.933C104.695 116.484 106.535 117.035 108.374 117.585C109.403 117.893 111.627 118.244 112.246 118.868C113.184 119.814 113.947 122.444 114.465 123.789C115.127 125.507 115.647 127.275 116.016 129.078C116.708 132.458 116.89 135.92 116.678 139.36C116.233 146.575 114.194 153.582 111.885 160.393C109.583 167.189 106.919 173.864 104.85 180.737C103.888 183.931 100.445 192.655 105.6 194.154C109.846 195.388 115.021 190.766 117.314 187.727C119.996 184.168 122.005 179.865 124.165 175.975C131.56 162.661 136.933 148.312 138.561 133.084C140.632 134.453 142.537 136.008 144.221 137.759C144.19 137.853 144.159 137.946 144.156 138.053C143.898 148.428 143.824 158.941 141.452 169.1Z" fill="#D3D6D6"/>
<path d="M65.6701 143.511C65.5125 139.948 63.1295 137.56 60.0379 136.181C59.7708 136.061 59.5047 136.079 59.2723 136.184C53.0622 135.475 51.5466 143.136 51.7031 147.973C51.8227 151.692 53.6244 155.383 57.6404 154.029C57.8606 154.081 58.1165 154.044 58.3602 153.899C62.0632 151.692 65.878 148.21 65.6701 143.511ZM103.238 138.057C103.903 147.875 103.365 157.92 100.974 167.495C98.6684 176.727 94.145 185.049 89.9536 193.518C88.0199 197.423 85.647 202.742 85.9868 207.466C80.6955 201.916 75.3763 196.392 69.9889 190.936C61.9391 182.781 53.6267 174.884 45.6764 166.632C45.7043 166.58 45.7423 166.538 45.7635 166.478C48.4651 158.848 45.3187 150.401 43.195 143.004C41.9052 138.51 40.3862 134.68 40.7998 129.915C41.1228 126.201 41.3173 120.522 44.3362 117.851C44.505 117.702 44.6045 117.505 44.6704 117.301C45.0292 117.286 45.3857 117.267 45.7445 117.254C53.1639 116.978 60.8516 117.28 67.4662 121.044C74.509 125.051 77.8319 131.954 78.4981 139.823C79.1218 147.176 77.9236 154.542 77.3122 161.855C76.9344 166.373 75.06 174.606 79.3375 177.882C84.3639 181.731 89.8474 175.563 92.455 171.799C96.2385 166.338 97.8715 159.703 97.9531 153.117C98.0459 145.654 95.8149 138.846 94.6692 131.575C93.6599 125.167 93.6532 118.233 90.803 112.326C93.9695 113.273 97.1349 114.22 100.3 115.168C100.569 115.248 100.838 115.329 101.106 115.409C100.655 118.964 101.34 122.482 102.004 125.974C102.768 130.002 102.96 133.974 103.238 138.057Z" fill="#D3D6D6"/>
<path d="M396.776 212.1C383.803 220.442 375.535 233.708 366.744 245.997C362.38 252.097 357.788 258.021 352.451 263.307C346.632 269.07 339.934 273.47 333.569 278.545C329.977 281.409 326.809 284.68 324.729 288.822C322.532 293.197 321.478 298.035 320.43 302.785C320.084 302.426 319.737 302.069 319.391 301.71C324.283 299.07 329.179 296.439 334.065 293.791C338.525 291.374 342.925 288.87 345.656 284.431C348.191 280.31 349.51 275.422 351.151 270.903C352.755 266.486 354.355 262.065 355.76 257.579C356.073 256.58 357.374 257.408 357.117 258.231C355.57 263.17 353.789 268.031 352.021 272.893C350.392 277.375 349.063 282.228 346.38 286.222C343.903 289.911 340.202 292.309 336.38 294.424C330.989 297.407 325.535 300.283 320.113 303.209C319.503 303.537 318.959 302.65 319.073 302.132C320.758 294.496 322.716 286.901 328.277 281.094C334.035 275.078 341.599 271.002 347.794 265.447C359.891 254.602 367.897 240.632 377.813 227.963C383.03 221.297 388.902 215.201 396.055 210.602C396.781 210.134 397.516 211.624 396.776 212.1Z" fill="#D3D6D6"/>
<path d="M382.379 224.762C377.257 226.45 371.958 227.105 366.609 227.617C360.912 228.162 355.226 229.146 349.506 229.379C344.386 229.585 339.451 228.968 334.405 228.185C330.157 227.525 325.854 226.87 322.257 224.356C321.875 224.088 321.681 223.193 322.231 222.98C324.456 222.115 326.733 221.832 329.096 221.588C332.112 221.276 334.775 220.551 337.559 219.355C342.475 217.241 347.611 215.815 352.95 215.296C363.226 214.299 373.476 218.064 382.187 223.279C382.909 223.712 382.741 225.28 381.85 224.747C373.015 219.455 362.765 215.764 352.36 217C347.103 217.625 342.272 219.202 337.413 221.23C332.719 223.19 327.621 222.663 322.952 224.478C322.943 224.019 322.934 223.561 322.926 223.101C326.723 225.756 331.534 226.125 335.977 226.849C341.047 227.676 346.08 228.024 351.211 227.663C356.062 227.322 360.877 226.531 365.719 226.067C371.116 225.551 376.483 224.968 381.658 223.264C382.491 222.989 383.2 224.492 382.379 224.762Z" fill="#D3D6D6"/>
<path d="M323.144 222.978C324.27 224.128 326.615 224.088 328.111 224.162C330.274 224.27 332.451 224.19 334.612 224.07C340.099 223.766 345.596 223.381 351.072 222.922C361.272 222.067 371.944 220.561 382.008 223.221C382.81 223.433 382.974 225.056 382.027 224.806C370.669 221.804 358.593 224.062 347.095 224.844C342.14 225.18 337.167 225.663 332.2 225.784C329.458 225.851 324.608 226.411 322.475 224.232C321.858 223.601 322.389 222.206 323.144 222.978Z" fill="#D3D6D6"/>
</g>
</svg>
