<?xml version="1.0" encoding="UTF-8" standalone="no"?><!DOCTYPE svg PUBLIC "-//W3C//DTD SVG 1.1//EN" "http://www.w3.org/Graphics/SVG/1.1/DTD/svg11.dtd"><svg width="100%" height="100%" viewBox="0 0 191 199" version="1.1" xmlns="http://www.w3.org/2000/svg" xmlns:xlink="http://www.w3.org/1999/xlink" xml:space="preserve" xmlns:serif="http://www.serif.com/" style="fill-rule:evenodd;clip-rule:evenodd;stroke-linejoin:round;stroke-miterlimit:2;"><rect id="Plan-de-travail1" serif:id="Plan de travail1" x="0" y="0" width="191" height="199" style="fill:none;"/><clipPath id="_clip1"><rect x="0" y="0" width="191" height="199"/></clipPath><g clip-path="url(#_clip1)"><g><path d="M91.65,7.82l0,-2.959c0,-2.685 2.171,-4.861 4.85,-4.861c2.679,-0 4.85,2.176 4.85,4.861l0,2.959c0,2.686 -2.171,4.862 -4.85,4.862c-2.679,-0 -4.85,-2.177 -4.85,-4.862Zm-46.907,15.2c0.899,1.561 2.529,2.433 4.206,2.433c0.823,0 1.656,-0.21 2.419,-0.651c2.321,-1.342 3.117,-4.315 1.778,-6.64l-1.475,-2.563c-1.339,-2.326 -4.306,-3.123 -6.625,-1.782c-2.32,1.342 -3.116,4.315 -1.778,6.64l1.475,2.563Zm96.887,1.782c0.763,0.442 1.597,0.652 2.42,0.652c1.676,0 3.307,-0.873 4.205,-2.432l1.476,-2.562c1.34,-2.326 0.545,-5.299 -1.775,-6.641c-2.32,-1.342 -5.286,-0.545 -6.626,1.78l-1.476,2.562c-1.339,2.325 -0.544,5.298 1.776,6.641Zm37.242,35.544c0.823,0 1.657,-0.21 2.421,-0.653l2.557,-1.479c2.32,-1.343 3.114,-4.317 1.774,-6.641c-1.339,-2.325 -4.305,-3.122 -6.625,-1.779l-2.557,1.48c-2.32,1.343 -3.114,4.316 -1.775,6.641c0.899,1.559 2.528,2.431 4.205,2.431Zm12.608,86.217c-6.298,12.511 -23.899,20.917 -43.797,20.917c-13.64,0 -26.417,-3.943 -35.104,-10.694c-4.976,3.418 -10.229,5.618 -15.434,6.291c-0.237,0.031 -0.475,0.042 -0.705,0.04c-0.194,-0.002 -0.389,-0.015 -0.584,-0.04c-5.205,-0.673 -10.459,-2.874 -15.435,-6.291c-8.686,6.752 -21.463,10.694 -35.104,10.694c-19.898,0 -37.498,-8.406 -43.797,-20.917c-0.693,-1.377 -0.694,-3.002 0,-4.379c4.647,-9.234 15.274,-16.235 28.722,-19.27c-6.978,-9.934 -9.526,-21.671 -6.366,-31.712c0.387,-1.229 1.245,-2.254 2.385,-2.849c7.97,-4.161 18.078,-4.463 27.917,-1.007c1.46,-4.849 3.759,-9.07 6.873,-12.359c1.066,-1.125 2.604,-1.673 4.139,-1.475c2.544,0.329 5.099,1.023 7.629,2.046c5.132,-10.871 12.696,-18.978 21.657,-23.099c1.284,-0.591 2.761,-0.591 4.046,0c8.957,4.119 16.519,12.221 21.652,23.084c2.53,-1.014 5.088,-1.701 7.636,-2.031c1.536,-0.198 3.073,0.35 4.139,1.475c3.115,3.289 5.412,7.509 6.873,12.358c9.84,-3.455 19.947,-3.153 27.916,1.007c1.14,0.596 1.998,1.62 2.385,2.849c3.161,10.041 0.613,21.778 -6.366,31.712c13.449,3.034 24.076,10.036 28.723,19.269c0.693,1.379 0.693,3.004 0,4.381Zm-58.729,-13.79c5.267,-1.312 10.5,-4.013 15.109,-7.889c9.414,-7.916 14.344,-19.443 12.519,-28.758c-5.698,-2.218 -12.804,-1.874 -19.807,0.942c0.672,9.077 -0.961,19.345 -4.995,29.45c-0.858,2.148 -1.803,4.237 -2.826,6.255Zm-51.427,-52.479c5.588,3.987 10.8,9.506 15.166,16.107c4.388,-6.672 9.594,-12.182 15.169,-16.145c-3.736,-8.09 -9.084,-14.418 -15.159,-17.914c-6.086,3.502 -11.44,9.844 -15.176,17.952Zm-36.185,44.59c4.608,3.876 9.842,6.578 15.11,7.889c-1.022,-2.019 -1.967,-4.106 -2.826,-6.256c-4.034,-10.104 -5.667,-20.372 -4.995,-29.449c-7.002,-2.817 -14.109,-3.161 -19.807,-0.943c-1.826,9.316 3.104,20.842 12.518,28.759Zm27.62,25.455c-2.089,-2.106 -4.084,-4.432 -5.955,-6.944c-9.611,-0.165 -19.639,-4.113 -27.901,-11.063c-0.348,-0.292 -0.689,-0.587 -1.027,-0.887c-11.814,1.467 -21.715,6.348 -26.373,12.927c5.663,7.984 19.054,13.386 33.813,13.386c10.478,-0 20.5,-2.77 27.443,-7.419Zm21.856,-36.654c-4.834,-12.108 -12.916,-22.094 -21.411,-27.133c-0.237,-0.113 -0.461,-0.243 -0.672,-0.388c-2.01,-1.128 -4.038,-1.976 -6.049,-2.507c-2.011,2.882 -3.357,6.568 -4.027,10.768c-0.017,0.256 -0.055,0.512 -0.114,0.766c-1.119,8.111 0.216,18.018 4.087,27.715c3.907,9.785 9.933,18.183 16.587,23.706c0.155,0.112 0.305,0.235 0.448,0.368c3.605,2.91 7.383,4.973 11.097,5.954c5.962,-8.542 6.081,-24.152 0.054,-39.249Zm31.955,9.22c3.87,-9.692 5.205,-19.597 4.089,-27.707c-0.061,-0.26 -0.1,-0.522 -0.117,-0.784c-0.67,-4.196 -2.016,-7.879 -4.026,-10.759c-1.981,0.522 -3.982,1.35 -5.968,2.452c-0.263,0.19 -0.548,0.355 -0.854,0.492c-6.598,3.93 -12.966,10.851 -17.759,19.566c0.594,1.278 1.156,2.581 1.686,3.908c5.5,13.778 6.537,27.857 3.353,38.81c0.865,-0.589 1.725,-1.229 2.574,-1.915c0.135,-0.124 0.275,-0.239 0.42,-0.344c6.659,-5.523 12.693,-13.927 16.602,-23.719Zm54.927,21.467c-4.659,-6.579 -14.561,-11.459 -26.375,-12.927c-0.337,0.299 -0.68,0.595 -1.027,0.887c-8.262,6.949 -18.289,10.897 -27.9,11.063c-1.87,2.512 -3.865,4.837 -5.954,6.944c6.943,4.648 16.966,7.418 27.442,7.418c14.759,0.001 28.15,-5.401 33.814,-13.385Zm-37.977,35.956c-2.02,-1.763 -5.084,-1.551 -6.843,0.473c-3.059,3.52 -17.546,8.476 -40.177,8.476c-22.631,-0 -37.119,-4.956 -40.177,-8.476c-1.76,-2.024 -4.824,-2.236 -6.844,-0.473c-2.019,1.764 -2.231,4.835 -0.471,6.859c7.578,8.719 30.32,11.813 47.493,11.813c17.172,-0 39.914,-3.094 47.492,-11.813c1.758,-2.025 1.547,-5.095 -0.473,-6.859Zm-110.782,-102.862c2.576,0.727 5.257,-0.777 5.983,-3.361c7.251,-25.794 31.01,-43.809 57.779,-43.809c26.769,-0 50.528,18.015 57.779,43.809c0.602,2.144 2.548,3.544 4.666,3.544c0.435,-0 0.878,-0.059 1.318,-0.183c2.578,-0.729 4.079,-3.414 3.353,-5.998c-8.424,-29.966 -36.023,-50.894 -67.116,-50.894c-31.094,-0 -58.693,20.928 -67.116,50.894c-0.726,2.584 0.775,5.269 3.354,5.998Zm63.762,105.195c4.167,-0 18.15,-0.445 23.127,-6.175c1.759,-2.025 1.547,-5.096 -0.473,-6.859c-2.01,-1.754 -5.053,-1.553 -6.816,0.443c-1.106,1.008 -6.847,2.868 -15.838,2.868c-8.993,-0 -14.734,-1.861 -15.84,-2.869c-1.763,-1.995 -4.805,-2.196 -6.815,-0.442c-2.02,1.764 -2.232,4.835 -0.472,6.859c4.978,5.73 18.961,6.175 23.127,6.175Zm-87.35,-124.448l2.555,1.48c0.764,0.442 1.598,0.653 2.422,0.653c1.676,-0 3.305,-0.871 4.204,-2.43c1.341,-2.325 0.547,-5.299 -1.773,-6.642l-2.555,-1.48c-2.318,-1.342 -5.286,-0.548 -6.626,1.778c-1.34,2.324 -0.546,5.297 1.773,6.641Z" style="fill:#fff;fill-rule:nonzero;"/></g></g></svg>