<?xml version="1.0" encoding="UTF-8" standalone="no"?><!DOCTYPE svg PUBLIC "-//W3C//DTD SVG 1.1//EN" "http://www.w3.org/Graphics/SVG/1.1/DTD/svg11.dtd"><svg width="100%" height="100%" viewBox="0 0 30 31" version="1.1" xmlns="http://www.w3.org/2000/svg" xmlns:xlink="http://www.w3.org/1999/xlink" xml:space="preserve" xmlns:serif="http://www.serif.com/" style="fill-rule:evenodd;clip-rule:evenodd;stroke-linejoin:round;stroke-miterlimit:2;"><rect id="Plan-de-travail1" serif:id="Plan de travail1" x="0" y="0" width="29.158" height="30.205" style="fill:none;"/><path d="M13.657,1.179l0,-0.446c0,-0.405 0.327,-0.733 0.731,-0.733c0.403,-0 0.731,0.328 0.731,0.733l-0,0.446c-0,0.405 -0.328,0.733 -0.731,0.733c-0.404,0 -0.731,-0.328 -0.731,-0.733Zm-7.067,2.291c0.136,0.236 0.381,0.367 0.634,0.367c0.124,0 0.249,-0.031 0.364,-0.098c0.35,-0.202 0.47,-0.65 0.268,-1.001l-0.222,-0.386c-0.202,-0.351 -0.649,-0.471 -0.998,-0.269c-0.35,0.202 -0.47,0.65 -0.268,1.001l0.222,0.386Zm14.597,0.269c0.115,0.067 0.241,0.098 0.365,0.098c0.252,0 0.498,-0.131 0.633,-0.366l0.222,-0.387c0.202,-0.35 0.082,-0.798 -0.267,-1.001c-0.349,-0.202 -0.796,-0.082 -0.998,0.269l-0.223,0.386c-0.201,0.35 -0.082,0.799 0.268,1.001Zm5.611,5.358c0.124,-0 0.249,-0.031 0.364,-0.098l0.386,-0.223c0.349,-0.202 0.469,-0.651 0.267,-1.001c-0.202,-0.351 -0.649,-0.471 -0.998,-0.268l-0.385,0.223c-0.35,0.202 -0.47,0.65 -0.268,1.001c0.136,0.235 0.381,0.366 0.634,0.366Zm1.899,12.998c-0.949,1.886 -3.6,3.153 -6.598,3.153c-2.055,-0 -3.98,-0.594 -5.289,-1.612c-0.749,0.515 -1.541,0.847 -2.325,0.948c-0.036,0.005 -0.072,0.007 -0.106,0.006c-0.029,0 -0.059,-0.002 -0.088,-0.006c-0.784,-0.101 -1.576,-0.433 -2.326,-0.948c-1.308,1.018 -3.233,1.612 -5.288,1.612c-2.998,-0 -5.65,-1.267 -6.599,-3.153c-0.104,-0.208 -0.104,-0.453 0,-0.66c0.701,-1.392 2.302,-2.448 4.328,-2.905c-1.052,-1.498 -1.436,-3.267 -0.959,-4.781c0.058,-0.185 0.187,-0.34 0.359,-0.429c1.201,-0.628 2.723,-0.673 4.206,-0.152c0.22,-0.731 0.566,-1.368 1.035,-1.863c0.161,-0.17 0.393,-0.253 0.624,-0.223c0.383,0.05 0.768,0.154 1.149,0.309c0.773,-1.639 1.913,-2.861 3.263,-3.483c0.193,-0.089 0.416,-0.089 0.609,0c1.35,0.621 2.489,1.843 3.263,3.48c0.381,-0.152 0.766,-0.256 1.15,-0.306c0.231,-0.03 0.463,0.053 0.623,0.223c0.47,0.495 0.816,1.132 1.036,1.863c1.482,-0.521 3.005,-0.476 4.206,0.151c0.171,0.09 0.301,0.245 0.359,0.43c0.476,1.514 0.092,3.283 -0.959,4.781c2.026,0.457 3.627,1.513 4.327,2.905c0.105,0.207 0.105,0.452 0,0.66Zm-8.848,-2.079c0.794,-0.198 1.582,-0.605 2.277,-1.189c1.418,-1.194 2.161,-2.931 1.886,-4.336c-0.859,-0.334 -1.929,-0.282 -2.984,0.142c0.101,1.369 -0.145,2.917 -0.753,4.44c-0.129,0.324 -0.272,0.639 -0.426,0.943Zm-7.748,-7.911c0.842,0.601 1.628,1.433 2.285,2.428c0.661,-1.006 1.446,-1.837 2.286,-2.434c-0.563,-1.22 -1.369,-2.174 -2.284,-2.701c-0.917,0.528 -1.724,1.484 -2.287,2.707Zm-5.451,6.722c0.694,0.584 1.483,0.991 2.276,1.189c-0.154,-0.304 -0.296,-0.619 -0.425,-0.943c-0.608,-1.523 -0.854,-3.071 -0.753,-4.44c-1.055,-0.424 -2.126,-0.476 -2.984,-0.142c-0.275,1.405 0.468,3.142 1.886,4.336Zm4.161,3.837c-0.315,-0.317 -0.615,-0.668 -0.897,-1.047c-1.448,-0.024 -2.959,-0.62 -4.204,-1.667c-0.052,-0.044 -0.103,-0.089 -0.154,-0.134c-1.78,0.221 -3.272,0.957 -3.974,1.949c0.854,1.203 2.871,2.018 5.095,2.018c1.578,-0 3.088,-0.418 4.134,-1.119Zm3.293,-5.526c-0.728,-1.825 -1.946,-3.33 -3.226,-4.09c-0.036,-0.017 -0.069,-0.037 -0.101,-0.058c-0.303,-0.171 -0.608,-0.298 -0.912,-0.378c-0.302,0.434 -0.505,0.99 -0.606,1.623c-0.003,0.039 -0.008,0.077 -0.017,0.115c-0.169,1.223 0.032,2.717 0.615,4.179c0.589,1.475 1.497,2.741 2.499,3.573c0.024,0.017 0.046,0.036 0.068,0.056c0.543,0.438 1.112,0.749 1.672,0.897c0.898,-1.287 0.916,-3.641 0.008,-5.917Zm4.814,1.39c0.583,-1.461 0.784,-2.954 0.616,-4.176c-0.009,-0.04 -0.015,-0.079 -0.018,-0.119c-0.1,-0.632 -0.303,-1.188 -0.606,-1.622c-0.299,0.079 -0.6,0.204 -0.899,0.37c-0.04,0.029 -0.083,0.053 -0.129,0.074c-0.994,0.593 -1.953,1.636 -2.675,2.95c0.089,0.192 0.174,0.389 0.254,0.589c0.828,2.077 0.985,4.2 0.505,5.851c0.13,-0.089 0.26,-0.186 0.388,-0.289c0.02,-0.019 0.041,-0.036 0.063,-0.052c1.003,-0.832 1.912,-2.099 2.501,-3.576Zm8.275,3.237c-0.702,-0.992 -2.193,-1.728 -3.973,-1.949c-0.051,0.045 -0.103,0.09 -0.155,0.134c-1.245,1.047 -2.755,1.642 -4.203,1.667c-0.282,0.379 -0.583,0.73 -0.897,1.047c1.046,0.701 2.556,1.119 4.134,1.119c2.223,-0 4.241,-0.815 5.094,-2.018Zm-5.721,5.42c-0.305,-0.266 -0.766,-0.234 -1.031,0.071c-0.461,0.531 -2.644,1.278 -6.053,1.278c-3.41,-0 -5.592,-0.747 -6.053,-1.278c-0.265,-0.305 -0.727,-0.337 -1.031,-0.071c-0.304,0.266 -0.336,0.729 -0.071,1.034c1.141,1.315 4.568,1.781 7.155,1.781c2.587,0 6.013,-0.466 7.155,-1.781c0.265,-0.305 0.233,-0.768 -0.071,-1.034Zm-16.69,-15.507c0.388,0.11 0.792,-0.117 0.901,-0.506c1.092,-3.889 4.672,-6.605 8.705,-6.605c4.033,-0 7.612,2.716 8.705,6.605c0.09,0.323 0.384,0.534 0.703,0.534c0.065,0 0.132,-0.009 0.198,-0.028c0.389,-0.11 0.615,-0.514 0.505,-0.904c-1.269,-4.517 -5.427,-7.672 -10.111,-7.672c-4.685,0 -8.843,3.155 -10.112,7.672c-0.109,0.39 0.117,0.794 0.506,0.904Zm9.606,15.859c0.628,0 2.734,-0.067 3.484,-0.931c0.265,-0.305 0.233,-0.768 -0.071,-1.034c-0.303,-0.265 -0.762,-0.234 -1.027,0.067c-0.167,0.152 -1.032,0.432 -2.386,0.432c-1.355,0 -2.22,-0.28 -2.387,-0.432c-0.265,-0.301 -0.724,-0.332 -1.026,-0.067c-0.305,0.266 -0.337,0.729 -0.071,1.034c0.75,0.864 2.856,0.931 3.484,0.931Zm-13.16,-18.761l0.385,0.223c0.115,0.067 0.241,0.098 0.365,0.098c0.252,-0 0.498,-0.131 0.633,-0.366c0.202,-0.35 0.082,-0.799 -0.267,-1.001l-0.385,-0.223c-0.349,-0.203 -0.796,-0.083 -0.998,0.268c-0.202,0.35 -0.083,0.798 0.267,1.001Z" style="fill:#fff;fill-rule:nonzero;"/></svg>