<svg width="13" height="17" viewBox="0 0 13 17" fill="none" xmlns="http://www.w3.org/2000/svg">
<path d="M12.4666 2.05418C12.3133 1.96503 12.124 1.96503 11.9708 2.05418C11.3772 2.38349 10.7088 2.55425 10.03 2.55C9.03749 2.57195 8.07786 2.19423 7.36664 1.50168C6.5456 0.697996 5.43548 0.258852 4.28682 0.283355C3.36175 0.275354 2.4573 0.556684 1.7 1.08803V0.85C1.7 0.380574 1.31946 0 0.85 0C0.380541 0 0 0.380541 0 0.85V16.15C0 16.6194 0.380541 17 0.85 17C1.31943 17 1.7 16.6195 1.7 16.15V8.78332C1.7939 8.77452 1.88335 8.73916 1.95782 8.68132C2.63191 8.1849 3.44974 7.92227 4.28682 7.93332C5.28112 7.91048 6.24285 8.28823 6.95582 8.98164C7.77531 9.78416 8.88323 10.2232 10.03 10.2C10.9089 10.2102 11.7709 9.95871 12.5063 9.47747C12.6637 9.36839 12.7554 9.18721 12.75 8.99579V2.55C12.7518 2.34573 12.6435 2.15631 12.4666 2.05418Z" fill="white"/>
</svg>
