<svg width="22" height="27" viewBox="0 0 22 27" fill="none" xmlns="http://www.w3.org/2000/svg">
<path d="M10.8566 13.428C14.2885 13.428 17.0706 10.6459 17.0706 7.21403C17.0706 3.78213 14.2885 1.00003 10.8566 1.00003C7.42468 1.00003 4.64258 3.78213 4.64258 7.21403C4.64258 10.6459 7.42468 13.428 10.8566 13.428Z" stroke="white" stroke-width="1.5" stroke-linecap="round" stroke-linejoin="round"/>
<path fill-rule="evenodd" clip-rule="evenodd" d="M1.00002 22.0706C0.998372 21.6338 1.09607 21.2023 1.28574 20.8088C1.88096 19.6183 3.55946 18.9874 4.95227 18.7017C5.95676 18.4873 6.97512 18.3441 7.99977 18.2731C9.89683 18.1065 11.8049 18.1065 13.7019 18.2731C14.7265 18.345 15.7448 18.4881 16.7494 18.7017C18.1422 18.9874 19.8207 19.5588 20.4159 20.8088C20.7974 21.6109 20.7974 22.5422 20.4159 23.3444C19.8207 24.5943 18.1422 25.1657 16.7494 25.4395C15.7461 25.6628 14.7274 25.81 13.7019 25.88C12.1579 26.0109 10.6066 26.0347 9.05925 25.9514C8.70212 25.9514 8.3569 25.9514 7.99977 25.88C6.97814 25.8109 5.96331 25.6636 4.96417 25.4395C3.55946 25.1657 1.89286 24.5943 1.28574 23.3444C1.09704 22.9463 0.999438 22.5112 1.00002 22.0706Z" stroke="white" stroke-width="1.5" stroke-linecap="round" stroke-linejoin="round"/>
</svg>
